# xmcd
#
# Track frame offsets:
#	150
#	11740
#	23597
#	35988
#	46736
#	58650
#	69515
#	83422
#	95075
#	107688
#	118807
#	129026
#	139472
#	150797
#	161578
#	173526
#	182911
#	193280
#
# Disc length: 2714 seconds
#
# Revision: 0
# Processed by: cddbd v1.5.2PL0 Copyright (c) Steve Scherf et al.
# Submitted via: dBpowerAMP V4.0
#
DISCID=ea0a9812
DTITLE=Patsy Cline - Together Patsy Cline
DYEAR=1900
DGENRE=
TTITLE0=Walkin' After Midnight
TTITLE1=Let The Teardrops Fall
TTITLE2=A Poor Man's Roses (Or A Rich Man's Gold)
TTITLE3=Honky Tonk Merry-Go-Round
TTITLE4=Today, Tomorrow And Forever
TTITLE5=I Cried All The Way To The Altar
TTITLE6=A Church, A Courtroom And Then Goodbye
TTITLE7=I've Loved And Lost Again
TTITLE8=Fingerprints
TTITLE9=A Stranger In My Arms
TTITLE10=Three Cigarettes (In An Ashtray)
TTITLE11=He'll Do For You
TTITLE12=That Wonderful Someone'
TTITLE13=I Can See An Angel
TTITLE14=If I Could Only Stay Asleep
TTITLE15=Love, Love, Love Me Honey Do
TTITLE16=Walking Dreams
TTITLE17=Too Many Secrets
EXTD=
EXTT0=
EXTT1=
EXTT2=
EXTT3=
EXTT4=
EXTT5=
EXTT6=
EXTT7=
EXTT8=
EXTT9=
EXTT10=
EXTT11=
EXTT12=
EXTT13=
EXTT14=
EXTT15=
EXTT16=
EXTT17=
PLAYORDER=
